<?xml version="1.0" encoding="UTF-8"?>
<svg width="320px" height="91px" viewBox="0 0 320 91" version="1.1" xmlns="http://www.w3.org/2000/svg" xmlns:xlink="http://www.w3.org/1999/xlink">
    <!-- Generator: Sketch 52.4 (67378) - http://www.bohemiancoding.com/sketch -->
    <title>logo</title>
    <desc>Created with Sketch.</desc>
    <defs>
        <linearGradient x1="57.4979691%" y1="4.50281992%" x2="38.5313162%" y2="104.773202%" id="linearGradient-1">
            <stop stop-color="#3A02AA" offset="0%"></stop>
            <stop stop-color="#4002AD" offset="8%"></stop>
            <stop stop-color="#6602BC" offset="18%"></stop>
            <stop stop-color="#9401CF" offset="32%"></stop>
            <stop stop-color="#BB01DF" offset="46%"></stop>
            <stop stop-color="#D900EB" offset="60%"></stop>
            <stop stop-color="#EE00F4" offset="74%"></stop>
            <stop stop-color="#FB00F9" offset="87%"></stop>
            <stop stop-color="#FF00FB" offset="100%"></stop>
        </linearGradient>
        <linearGradient x1="71.8013952%" y1="-15.9443926%" x2="39.827657%" y2="86.7191166%" id="linearGradient-2">
            <stop stop-color="#FF00FB" offset="0%"></stop>
            <stop stop-color="#FB00F9" offset="13%"></stop>
            <stop stop-color="#EE00F4" offset="26%"></stop>
            <stop stop-color="#D900EB" offset="40%"></stop>
            <stop stop-color="#BB01DF" offset="54%"></stop>
            <stop stop-color="#9401CF" offset="68%"></stop>
            <stop stop-color="#6602BC" offset="82%"></stop>
            <stop stop-color="#4002AD" offset="92%"></stop>
            <stop stop-color="#3A02AA" offset="100%"></stop>
        </linearGradient>
    </defs>
    <g id="home_page" stroke="none" stroke-width="1" fill="none" fill-rule="evenodd">
        <g id="final" transform="translate(-201.000000, -60.000000)">
            <g id="logo" transform="translate(201.000000, 60.000000)">
                <g id="signet">
                    <path d="M90.9852153,44.6064731 C90.8033917,62.4651924 77.2944684,77.3196138 59.6448772,79.0683302 C41.995286,80.8170467 25.8706821,68.8987068 22.2362307,51.4181029 C21.7023384,49.3823469 21.4339569,47.2852457 21.4378554,45.1796922 C21.4378554,44.807472 21.4378554,44.4352518 21.4378554,44.070476 C22.0342291,31.1223102 32.6322215,20.9332616 45.5036962,20.9332616 C58.3751709,20.9332616 68.9731632,31.1223102 69.569537,44.070476 L69.569537,44.0258096 C69.5683404,26.1868662 56.2537681,11.1987106 38.6489848,9.21867969 C21.0442015,7.23864876 4.77415442,18.8993869 0.86490658,36.298518 C0.328594059,39.0359321 0.0391138115,41.8165664 0,44.6064731 C0,44.8000276 0,44.9861377 0,45.1796922 C3.07740957e-15,70.4855494 20.3710439,91 45.5,91 C70.6289561,91 91,70.4855494 91,45.1796922 C91,44.9861377 90.9926076,44.77025 90.9852153,44.6064731 Z" id="Path" fill="url(#linearGradient-1)"></path>
                    <path d="M90.2022979,37.0031105 C85.9975944,15.4999407 67.3149714,1.34119269e-15 45.601149,0 C23.8873266,-1.34248603e-15 5.20470352,15.4999407 1,37.0031105 C4.90595145,19.5778299 21.1622792,7.89956655 38.7522177,9.88257331 C56.3421562,11.8655801 69.6455012,26.8762616 69.6466968,44.7420155 L69.6466968,44.7792935 C69.6466968,45.1446175 69.6466968,45.5248528 69.6466968,45.8901768 C69.6548282,58.0979444 60.6881183,68.4164738 48.6961609,69.9992118 C36.7042034,71.5819497 25.4106433,63.9374373 22.3089865,52.1379633 C25.9403732,69.6448392 42.0513804,81.5810914 59.6860889,79.8297467 C77.3207975,78.0784021 90.8183298,63.2016557 91,45.3160962 C90.9860556,42.526331 90.7190399,39.7437162 90.2022979,37.0031105 Z" id="Path" fill="url(#linearGradient-2)"></path>
                </g>
                <text id="overment" font-family="Montserrat-Regular, Montserrat" font-size="42" font-weight="normal" fill="#111111">
                    <tspan x="116.394" y="55">overment</tspan>
                </text>
            </g>
        </g>
    </g>
</svg>