<?xml version="1.0" encoding="UTF-8"?>
<svg width="263px" height="684px" viewBox="0 0 263 684" version="1.1" xmlns="http://www.w3.org/2000/svg" xmlns:xlink="http://www.w3.org/1999/xlink">
    <!-- Generator: Sketch 52.4 (67378) - http://www.bohemiancoding.com/sketch -->
    <title>Group 7</title>
    <desc>Created with Sketch.</desc>
    <defs>
        <linearGradient x1="-43.7714148%" y1="92.4386754%" x2="95.6197655%" y2="59.3271657%" id="linearGradient-1">
            <stop stop-color="#FF00FB" offset="0%"></stop>
            <stop stop-color="#FB00F9" offset="13%"></stop>
            <stop stop-color="#EE00F4" offset="26%"></stop>
            <stop stop-color="#D900EB" offset="40%"></stop>
            <stop stop-color="#BB01DF" offset="54%"></stop>
            <stop stop-color="#9401CF" offset="68%"></stop>
            <stop stop-color="#6602BC" offset="82%"></stop>
            <stop stop-color="#4002AD" offset="92%"></stop>
            <stop stop-color="#3A02AA" offset="100%"></stop>
            <stop stop-color="#3A02AA" offset="100%"></stop>
        </linearGradient>
        <linearGradient x1="-16.8610591%" y1="92.0978974%" x2="55.420358%" y2="74.0945684%" id="linearGradient-2">
            <stop stop-color="#FFFFFF" offset="0%"></stop>
            <stop stop-color="#FFFFFF" stop-opacity="0" offset="100%"></stop>
        </linearGradient>
        <linearGradient x1="50%" y1="0%" x2="50%" y2="100%" id="linearGradient-3">
            <stop stop-color="#FF3800" stop-opacity="0.5" offset="0%"></stop>
            <stop stop-color="#BB2900" stop-opacity="0.5" offset="98.8100614%"></stop>
        </linearGradient>
        <path d="M30.7352941,15.7352941 L76.2647059,15.7352941 C84.5489771,15.7352941 91.2647059,22.4510229 91.2647059,30.7352941 L91.2647059,76.2647059 C91.2647059,84.5489771 84.5489771,91.2647059 76.2647059,91.2647059 L30.7352941,91.2647059 C22.4510229,91.2647059 15.7352941,84.5489771 15.7352941,76.2647059 L15.7352941,30.7352941 C15.7352941,22.4510229 22.4510229,15.7352941 30.7352941,15.7352941 Z" id="path-4"></path>
        <path d="M32,31 L74,31 L70.171875,74.3125 L53,80 L35.828125,74.3125 L32,31 Z M65.7575828,44.9416126 L66.3098592,39.8554217 L39.6901408,39.8554217 L41.015604,55.3259191 L59.4616329,55.3259191 L58.7989013,61.8955823 L52.9447724,63.3790547 L46.9801882,61.8955823 L46.6488224,57.8690145 L41.3469698,57.8690145 L42.0097014,65.9221501 L53.0552276,68.7831325 L63.8798434,65.9221501 L65.3157618,50.1337658 L45.9860908,50.1337658 L45.4338145,44.9416126 L65.7575828,44.9416126 Z" id="path-5"></path>
        <filter x="-2.4%" y="-2.0%" width="109.5%" height="108.2%" filterUnits="objectBoundingBox" id="filter-6">
            <feOffset dx="2" dy="2" in="SourceAlpha" result="shadowOffsetOuter1"></feOffset>
            <feColorMatrix values="0 0 0 0 0   0 0 0 0 0   0 0 0 0 0  0 0 0 0.25 0" type="matrix" in="shadowOffsetOuter1"></feColorMatrix>
        </filter>
        <linearGradient x1="50%" y1="0%" x2="50%" y2="98.3471821%" id="linearGradient-7">
            <stop stop-color="#0277BD" stop-opacity="0.5" offset="0%"></stop>
            <stop stop-color="#005F97" stop-opacity="0.5" offset="100%"></stop>
        </linearGradient>
        <path d="M31.742268,16.742268 L80.3935719,16.742268 C88.6778431,16.742268 95.3935719,23.4579968 95.3935719,31.742268 L95.3935719,80.3935719 C95.3935719,88.6778431 88.6778431,95.3935719 80.3935719,95.3935719 L31.742268,95.3935719 C23.4579968,95.3935719 16.742268,88.6778431 16.742268,80.3935719 L16.742268,31.742268 C16.742268,23.4579968 23.4579968,16.742268 31.742268,16.742268 Z" id="path-8"></path>
        <polygon id="path-9" points="79 37 72.8666667 72.3214286 51.4958333 80 33 72.3214286 34.9166667 63.203125 42.775 63.203125 42.0083333 67.1383929 53.125 71.3616071 65.9666667 67.1383929 67.7875 57.828125 35.875 57.828125 37.4083333 49.9575893 69.3208333 49.9575893 70.375 44.8705357 38.3666667 44.8705357 39.9958333 37"></polygon>
        <filter x="-2.2%" y="-2.3%" width="108.7%" height="109.3%" filterUnits="objectBoundingBox" id="filter-10">
            <feOffset dx="2" dy="2" in="SourceAlpha" result="shadowOffsetOuter1"></feOffset>
            <feColorMatrix values="0 0 0 0 0   0 0 0 0 0   0 0 0 0 0  0 0 0 0.5 0" type="matrix" in="shadowOffsetOuter1"></feColorMatrix>
        </filter>
        <path d="M34,35 L78,35 L78,79 L34,79 L34,35 Z M58.5063291,69.4589983 L58.5063291,55.6075949 L54.4219409,55.6075949 L54.4219409,69.4589983 C54.4219409,70.427628 54.2274463,71.0895244 53.8384569,71.444689 C53.4494676,71.7998537 52.9146072,71.9774353 52.2338758,71.9774353 C51.5531445,71.9774353 51.0182841,71.7837094 50.6292948,71.3962576 C50.3051375,71.1379558 49.9485634,70.653641 49.559574,69.9433132 L46.2531646,71.8805724 C47.4201326,74.3990094 49.4623267,75.6582278 52.3797468,75.6582278 C54.2598615,75.6582278 55.7509884,75.1416259 56.8531244,74.1084205 C57.9552604,73.0752151 58.5063291,71.5254077 58.5063291,69.4589983 Z M67.44824,75.1012658 C69.5769036,75.1012658 71.3107335,74.58055 72.6497312,73.53912 C73.988729,72.4976899 74.6582278,71.0363276 74.6582278,69.1550332 C74.6582278,67.4753059 74.1775615,66.131525 73.2162303,65.123689 C72.3235646,64.2502306 70.881567,63.3767737 68.8902376,62.5033153 L67.8602393,62.1001808 C66.830241,61.6298568 66.1264094,61.2267224 65.7487428,60.8907776 C65.3710763,60.5548327 65.1822438,60.1013065 65.1822438,59.5301989 C65.1822438,58.9590913 65.3710763,58.5055651 65.7487428,58.1696203 C66.1264094,57.8336754 66.6242414,57.6657022 67.2422403,57.6657022 C67.8602393,57.6657022 68.3924056,57.8000799 68.8387376,58.0688366 C69.2850697,58.3375934 69.6799034,58.8079159 70.0232357,59.4798071 L73.4222299,57.3633514 C72.7355639,56.1539482 71.8943997,55.2804897 70.8987342,54.7429777 C69.9030687,54.2054657 68.6842379,53.9367089 67.2422403,53.9367089 C65.3195764,53.9367089 63.774579,54.4742209 62.6072481,55.5492465 C61.4399173,56.6242722 60.8562511,57.968053 60.8562511,59.5805907 C60.8562511,61.1931284 61.3369175,62.5369093 62.2982487,63.6119349 C63.1222473,64.4853933 64.3925779,65.2580666 66.1092422,65.9299578 L67.1392405,66.4338758 C68.3752384,66.9713879 69.1649043,67.3745223 69.5082365,67.6432791 C70.0575684,68.0464135 70.3322351,68.5671293 70.3322351,69.205425 C70.3322351,69.8437206 70.0575684,70.3644364 69.5082365,70.7675708 C68.9589046,71.1707052 68.2379058,71.3722725 67.3452402,71.3722725 C65.6285759,71.3722725 64.2209126,70.498814 63.1222473,68.7518987 L59.6202532,70.7675708 C60.3069192,72.0441637 61.2682504,73.0855937 62.5042483,73.8918626 C63.8775788,74.6981314 65.525576,75.1012658 67.44824,75.1012658 Z" id="path-11"></path>
        <filter x="-2.3%" y="-2.3%" width="109.1%" height="109.1%" filterUnits="objectBoundingBox" id="filter-12">
            <feOffset dx="2" dy="2" in="SourceAlpha" result="shadowOffsetOuter1"></feOffset>
            <feColorMatrix values="0 0 0 0 0   0 0 0 0 0   0 0 0 0 0  0 0 0 0.5 0" type="matrix" in="shadowOffsetOuter1"></feColorMatrix>
        </filter>
        <path d="M62.5625,86 C62.34375,86 62.125,85.9268968 61.90625,85.7806922 L59.828125,84.5744991 C59.609375,84.4282944 59.6276047,84.3186405 59.8828125,84.2455373 C60.1380203,84.1724342 60.4114578,84.0262295 60.703125,83.8069217 C60.7760422,83.8069217 60.8489578,83.8434724 60.921875,83.9165756 L62.453125,84.7938069 C62.5260422,84.8669101 62.5989578,84.8669101 62.671875,84.7938069 L69.015625,81.1752277 C69.0885422,81.1021245 69.125,81.029023 69.125,80.9559198 L69.125,73.7187613 C69.125,73.6456582 69.0885422,73.5725567 69.015625,73.4994535 L62.671875,69.8808743 C62.5989578,69.8077711 62.5260422,69.8077711 62.453125,69.8808743 L56.21875,73.4994535 C56.1458328,73.5725567 56.109375,73.6456582 56.109375,73.7187613 L56.109375,80.9559198 C56.109375,81.029023 56.1458328,81.1021245 56.21875,81.1752277 L57.859375,82.1621129 C58.296875,82.3814208 58.6614578,82.399697 58.953125,82.2169399 C59.2447922,82.0341828 59.390625,81.7966004 59.390625,81.5041894 L59.390625,74.2670309 C59.390625,74.1939277 59.4635422,74.157377 59.609375,74.157377 L60.375,74.157377 C60.5208328,74.157377 60.59375,74.1939277 60.59375,74.2670309 L60.59375,81.5041894 C60.59375,82.8200364 59.9739578,83.4779599 58.734375,83.4779599 C58.296875,83.4779599 57.8229172,83.368306 57.3125,83.1489982 L55.5625,82.1621129 C55.125,81.8697019 54.90625,81.4676387 54.90625,80.9559198 L54.90625,73.7187613 C54.90625,73.2070425 55.125,72.8049793 55.5625,72.5125683 L61.90625,68.893989 C62.34375,68.601578 62.78125,68.601578 63.21875,68.893989 L69.5625,72.5125683 C70,72.8049793 70.21875,73.2070425 70.21875,73.7187613 L70.21875,80.9559198 C70.21875,81.5407402 70,81.9428051 69.5625,82.1621129 L63.21875,85.7806922 C63.0729172,85.9268968 62.8541672,86 62.5625,86 Z M67.703125,78.7628415 C67.703125,79.4938682 67.4296875,80.0421378 66.8828125,80.4076503 C66.3359375,80.7731627 65.5520828,80.9559198 64.53125,80.9559198 C62.2708328,80.9559198 61.140625,80.1883424 61.140625,78.6531876 C61.140625,78.5069829 61.2135422,78.4338798 61.359375,78.4338798 L62.234375,78.4338798 C62.3072922,78.4338798 62.34375,78.4704305 62.34375,78.5435337 C62.4166672,79.0552525 62.5989578,79.4024888 62.890625,79.5852459 C63.1822922,79.768003 63.7291672,79.8593807 64.53125,79.8593807 C65.84375,79.8593807 66.5,79.5304189 66.5,78.8724954 C66.5,78.5800844 66.3541672,78.3790528 66.0625,78.2693989 C65.7708328,78.159745 65.1510422,78.050091 64.203125,77.9404371 C63.2552078,77.8307832 62.5625,77.6480261 62.125,77.3921675 C61.6875,77.136309 61.4505203,76.6794171 61.4140625,76.0214936 C61.3776047,75.3635701 61.6145828,74.8518512 62.125,74.4863388 C62.6354172,74.1208263 63.3645828,73.9380692 64.3125,73.9380692 C66.28125,73.9380692 67.3385422,74.6690958 67.484375,76.1311475 L67.375,76.3504553 L66.390625,76.3504553 C66.3177078,76.3504553 66.28125,76.3139046 66.28125,76.2408014 C66.2083328,75.8021858 66.0260422,75.4915002 65.734375,75.3087431 C65.4427078,75.125986 64.96875,75.0346083 64.3125,75.0346083 C63.21875,75.0346083 62.671875,75.3270193 62.671875,75.9118397 C62.671875,76.1311475 62.7994797,76.2956284 63.0546875,76.4052823 C63.3098953,76.5149362 63.9296875,76.6428663 64.9140625,76.789071 C65.8984375,76.9352757 66.609375,77.136309 67.046875,77.3921675 C67.484375,77.6480261 67.703125,78.104918 67.703125,78.7628415 Z M73.71875,73.2801457 C73.71875,73.6456582 73.5911453,73.9380692 73.3359375,74.157377 C73.0807297,74.3766848 72.7890625,74.4863388 72.4609375,74.4863388 C72.1328125,74.4863388 71.8411453,74.3766848 71.5859375,74.157377 C71.3307297,73.9380692 71.203125,73.6456582 71.203125,73.2801457 C71.203125,72.9146332 71.3307297,72.6222222 71.5859375,72.4029143 C71.8411453,72.1836065 72.1328125,72.0739526 72.4609375,72.0739526 C72.7890625,72.0739526 73.0807297,72.1836065 73.3359375,72.4029143 C73.5911453,72.6222222 73.71875,72.9146332 73.71875,73.2801457 Z M73.5,73.2801457 C73.5,72.9877347 73.390625,72.7501523 73.171875,72.5673952 C72.953125,72.3846381 72.6979172,72.2932604 72.40625,72.2932604 C72.1145828,72.2932604 71.8776047,72.3846381 71.6953125,72.5673952 C71.5130203,72.7501523 71.421875,72.9877347 71.421875,73.2801457 C71.421875,73.5725567 71.5130203,73.810139 71.6953125,73.9928961 C71.8776047,74.1756532 72.1145828,74.2670309 72.40625,74.2670309 C72.6979172,74.2670309 72.953125,74.1756532 73.171875,73.9928961 C73.390625,73.810139 73.5,73.5725567 73.5,73.2801457 Z M72.734375,73.9380692 L72.625,73.4994535 C72.625,73.4263503 72.5885422,73.3897996 72.515625,73.3897996 L72.296875,73.3897996 L72.296875,73.9380692 L71.96875,73.9380692 L71.96875,72.6222222 L72.515625,72.6222222 C72.8072922,72.6222222 72.953125,72.7135999 72.953125,72.896357 C72.953125,73.079114 72.8802078,73.2070425 72.734375,73.2801457 C72.8072922,73.2801457 72.8802078,73.3897996 72.953125,73.6091074 L72.953125,73.9380692 L72.734375,73.9380692 Z M72.625,72.9511839 C72.625,72.8780807 72.5885422,72.84153 72.515625,72.84153 L72.296875,72.84153 L72.296875,73.1704918 L72.515625,73.1704918 C72.5885422,73.1704918 72.625,73.0973886 72.625,72.9511839 Z M42.984375,57.3803278 L42.984375,67.7974498 C42.984375,67.9436545 42.9114578,68.0533084 42.765625,68.1264116 C42.6197922,68.1995148 42.5104172,68.1995148 42.4375,68.1264116 L38.390625,65.8236793 C38.171875,65.6774747 38.0625,65.4581668 38.0625,65.1657558 L38.0625,60.2313296 C37.9895828,59.9389186 37.84375,59.7196107 37.625,59.5734061 L35.875,58.5865208 C35.8020828,58.5134177 35.6927078,58.4768669 35.546875,58.4768669 C35.4010422,58.4768669 35.2552078,58.5134177 35.109375,58.5865208 L33.359375,59.5734061 C33.140625,59.7196107 33.03125,59.9389186 33.03125,60.2313296 L33.03125,65.1657558 C33.03125,65.4581668 32.8854172,65.6774747 32.59375,65.8236793 L28.65625,68.1264116 C28.5104172,68.1995148 28.3645828,68.1995148 28.21875,68.1264116 C28.0729172,68.0533084 28,67.9436545 28,67.7974498 L28,57.3803278 C28,57.0879167 28.1458328,56.8686089 28.4375,56.7224043 L35.109375,52.7748633 C35.2552078,52.7017601 35.3645828,52.6652093 35.4375,52.6652093 L35.546875,52.6652093 C35.6927078,52.6652093 35.8020828,52.7017601 35.875,52.7748633 L42.65625,56.7224043 C42.875,56.8686089 42.984375,57.0879167 42.984375,57.3803278 Z M79.734375,65.3850637 C79.734375,65.6774747 79.5885422,65.8967825 79.296875,66.0429872 L72.625,69.8808743 C72.3333328,70.1001821 72.0416672,70.1001821 71.75,69.8808743 L65.078125,66.0429872 C64.7864578,65.8967825 64.640625,65.6774747 64.640625,65.3850637 L64.640625,57.5996356 C64.640625,57.3072246 64.7864578,57.0879167 65.078125,56.9417121 L71.75,52.9941711 C72.0416672,52.8479664 72.3333328,52.8479664 72.625,52.9941711 L74.265625,53.9810563 C74.3385422,54.0541595 74.4296875,54.0541595 74.5390625,53.9810563 C74.6484375,53.9079532 74.703125,53.8348517 74.703125,53.7617485 L74.703125,43.4542803 C74.703125,43.3080757 74.7578125,43.1801455 74.8671875,43.0704916 C74.9765625,42.9608377 75.1041672,42.9791139 75.25,43.1253186 L79.296875,45.3183969 C79.515625,45.4646016 79.6614578,45.6839094 79.734375,45.9763204 L79.734375,65.3850637 Z M74.703125,60.1216757 C74.703125,60.0485725 74.6666672,60.0120218 74.59375,60.0120218 L72.296875,58.5865208 L72.078125,58.5865208 L69.78125,60.0120218 C69.7083328,60.0120218 69.671875,60.0485725 69.671875,60.1216757 L69.671875,62.7533697 C69.671875,62.8995743 69.7083328,62.9726775 69.78125,62.9726775 L72.078125,64.2885245 C72.1510422,64.3616277 72.2239578,64.3616277 72.296875,64.2885245 L74.59375,62.9726775 L74.59375,60.1216757 L74.703125,60.1216757 Z M97.5625,60.0120218 L93.625,62.4244079 C93.4791672,62.4975111 93.3333328,62.4975111 93.1875,62.4244079 C93.0416672,62.3513047 92.96875,62.2416508 92.96875,62.0954462 L92.96875,60.1216757 C92.96875,59.975471 92.8958328,59.8658171 92.75,59.7927139 L90.671875,58.5865208 C90.5260422,58.5134177 90.3802078,58.5134177 90.234375,58.5865208 L88.15625,59.7927139 C88.0104172,59.8658171 87.9375,59.975471 87.9375,60.1216757 L87.9375,62.5340618 C87.9375,62.6802665 88.0104172,62.8264728 88.15625,62.9726775 L94.9375,66.8105646 C95.0833328,66.8836678 95.15625,66.9933217 95.15625,67.1395263 C95.15625,67.285731 95.0833328,67.3953849 94.9375,67.4684881 L90.890625,69.7712203 C90.5989578,69.917425 90.34375,69.917425 90.125,69.7712203 L83.453125,65.9333333 C83.1614578,65.7871286 83.015625,65.5678208 83.015625,65.2754098 L83.015625,57.4899817 C83.015625,57.1975707 83.1614578,56.9782628 83.453125,56.8320582 L90.125,52.8845172 C90.4166672,52.7383125 90.671875,52.7383125 90.890625,52.8845172 L97.5625,56.8320582 C97.8541672,56.9782628 98,57.1975707 98,57.4899817 L98,59.3540983 C98,59.6465093 97.8541672,59.8658171 97.5625,60.0120218 Z M89.140625,60.4506374 L90.453125,59.68306 L90.5625,59.68306 L91.875,60.4506374 C91.9479172,60.4506374 91.984375,60.4871882 91.984375,60.5602913 L91.984375,62.0954462 L91.875,62.2051001 L90.5625,62.9726775 L90.453125,62.9726775 L89.140625,62.2051001 C89.0677078,62.2051001 89.03125,62.1685493 89.03125,62.0954462 L89.03125,60.5602913 L89.140625,60.4506374 Z M61.359375,57.4899817 L61.359375,65.3850637 C61.2864578,65.6043715 61.140625,65.7871286 60.921875,65.9333333 L54.25,69.7712203 C53.9583328,69.917425 53.703125,69.917425 53.484375,69.7712203 L46.703125,65.9333333 C46.4114578,65.7871286 46.265625,65.5312683 46.265625,65.1657558 L46.265625,57.4899817 C46.265625,57.1975707 46.4114578,56.9782628 46.703125,56.8320582 L53.375,52.8845172 C53.6666672,52.7383125 53.9583328,52.7383125 54.25,52.8845172 L60.921875,56.8320582 C61.2135422,56.9782628 61.359375,57.1975707 61.359375,57.4899817 Z M61.578125,65.8236793 L61.46875,65.8236793 L61.46875,65.7140254 L61.578125,65.8236793 Z" id="path-13"></path>
        <filter x="-1.4%" y="-2.3%" width="105.7%" height="109.3%" filterUnits="objectBoundingBox" id="filter-14">
            <feOffset dx="2" dy="2" in="SourceAlpha" result="shadowOffsetOuter1"></feOffset>
            <feColorMatrix values="0 0 0 0 0   0 0 0 0 0   0 0 0 0 0  0 0 0 0.5 0" type="matrix" in="shadowOffsetOuter1"></feColorMatrix>
        </filter>
        <path d="M35.4374155,6.39731662 L35.4374155,10.070622 C35.4374155,11.1353478 34.6464018,12.1069109 33.0643743,12.98531 C31.4823468,13.8637092 29.3334258,14.5690899 26.6176123,15.1014534 C23.9017989,15.6338169 20.9354974,15.899998 17.7187078,15.899998 C14.5019181,15.899998 11.5356166,15.6338169 8.81980319,15.1014534 C6.10398976,14.5690899 3.9550687,13.8637092 2.37304122,12.98531 C0.791013739,12.1069109 0,11.1353478 0,10.070622 L0,6.39731662 C0,5.33259082 0.791013739,4.36102775 2.37304122,3.48262862 C3.9550687,2.6042295 6.10398976,1.89884879 8.81980319,1.36648528 C11.5356166,0.834121772 14.5019181,0.567940626 17.7187078,0.567940626 C20.9354974,0.567940626 23.9017989,0.834121772 26.6176123,1.36648528 C29.3334258,1.89884879 31.4823468,2.6042295 33.0643743,3.48262862 C34.6464018,4.36102775 35.4374155,5.33259082 35.4374155,6.39731662 Z M35.4374155,14.6223266 L35.4374155,22.8473366 C35.4374155,23.9120624 34.6464018,24.8836254 33.0643743,25.7620246 C31.4823468,26.6404237 29.3334258,27.3458044 26.6176123,27.8781679 C23.9017989,28.4105314 20.9354974,28.6767125 17.7187078,28.6767125 C14.5019181,28.6767125 11.5356166,28.4105314 8.81980319,27.8781679 C6.10398976,27.3458044 3.9550687,26.6404237 2.37304122,25.7620246 C0.791013739,24.8836254 0,23.9120624 0,22.8473366 L0,14.6223266 C1.84569832,15.899998 4.40331022,16.8848694 7.67283327,17.5769418 C10.7314201,18.2157775 14.0800446,18.5351954 17.7187078,18.5351954 C21.357371,18.5351954 24.7059954,18.2157775 27.7645822,17.5769418 C31.0341053,16.8848694 33.5917172,15.899998 35.4374155,14.6223266 Z M35.4374155,27.3990411 L35.4374155,35.6240511 C35.4374155,36.6887769 34.6464018,37.6603399 33.0643743,38.5387391 C31.4823468,39.4171382 29.3334258,40.1225189 26.6176123,40.6548824 C23.9017989,41.1872459 20.9354974,41.4534271 17.7187078,41.4534271 C14.5019181,41.4534271 11.5356166,41.1872459 8.81980319,40.6548824 C6.10398976,40.1225189 3.9550687,39.4171382 2.37304122,38.5387391 C0.791013739,37.6603399 0,36.6887769 0,35.6240511 L0,27.3990411 C1.84569832,28.6767125 4.40331022,29.6615839 7.67283327,30.3536563 C10.7314201,30.9924921 14.0800446,31.3119099 17.7187078,31.3119099 C21.357371,31.3119099 24.7059954,30.9924921 27.7645822,30.3536563 C31.0341053,29.6615839 33.5917172,28.6767125 35.4374155,27.3990411 Z" id="path-15"></path>
        <filter x="-2.8%" y="-2.4%" width="111.3%" height="109.8%" filterUnits="objectBoundingBox" id="filter-16">
            <feOffset dx="2" dy="2" in="SourceAlpha" result="shadowOffsetOuter1"></feOffset>
            <feColorMatrix values="0 0 0 0 0   0 0 0 0 0   0 0 0 0 0  0 0 0 0.5 0" type="matrix" in="shadowOffsetOuter1"></feColorMatrix>
        </filter>
        <path d="M5.56714286,59.7059321 L5.56714286,50.6202467 L9.65571429,50.6202467 C12.6,50.6202467 14.6185714,52.4114247 14.6185714,55.1630894 C14.6185714,57.9147541 12.6,59.7059321 9.65571429,59.7059321 L5.56714286,59.7059321 Z M7.65,57.9796519 L9.55285714,57.9796519 C11.34,57.9796519 12.51,56.9023492 12.51,55.1630894 C12.51,53.4238296 11.34,52.346527 9.55285714,52.346527 L7.65,52.346527 L7.65,57.9796519 Z M22.7957143,54.9813757 C23.7985714,55.3058645 24.4414286,56.0846375 24.4414286,57.2268379 C24.4414286,58.7973635 23.2071429,59.7059321 20.8414286,59.7059321 L16.1871429,59.7059321 L16.1871429,50.6202467 L20.5842857,50.6202467 C22.8342857,50.6202467 23.9914286,51.5677539 23.9914286,52.9825249 C23.9914286,53.8910935 23.5285714,54.5919892 22.7957143,54.9813757 Z M20.3271429,52.2037519 L18.2571429,52.2037519 L18.2571429,54.3453777 L20.3271429,54.3453777 C21.3428571,54.3453777 21.8957143,53.9819503 21.8957143,53.268075 C21.8957143,52.5541998 21.3428571,52.2037519 20.3271429,52.2037519 Z M20.6871429,58.1224269 C21.7671429,58.1224269 22.3457143,57.7849586 22.3457143,57.0061856 C22.3457143,56.2403921 21.7671429,55.8769647 20.6871429,55.8769647 L18.2571429,55.8769647 L18.2571429,58.1224269 L20.6871429,58.1224269 Z M28.2085714,59.8097685 C27.0385714,59.8097685 25.8557143,59.4852797 25.2128571,59.0569545 L25.8814286,57.6032449 C26.4985714,58.005611 27.4371429,58.2781815 28.2857143,58.2781815 C29.2114286,58.2781815 29.5585714,58.0315701 29.5585714,57.6421835 C29.5585714,56.4999831 25.38,57.6681426 25.38,54.8775393 C25.38,53.5536251 26.5628571,52.6190975 28.5814286,52.6190975 C29.5328571,52.6190975 30.5871429,52.8397499 31.2428571,53.2291364 L30.5742857,54.6698665 C29.8928571,54.28048 29.2114286,54.1506845 28.5814286,54.1506845 C27.6814286,54.1506845 27.2957143,54.4362346 27.2957143,54.799662 C27.2957143,55.9937806 31.4742857,54.8386006 31.4742857,57.5902653 C31.4742857,58.8882204 30.2785714,59.8097685 28.2085714,59.8097685 Z" id="path-17"></path>
        <filter x="-3.9%" y="-10.9%" width="115.4%" height="143.5%" filterUnits="objectBoundingBox" id="filter-18">
            <feOffset dx="2" dy="2" in="SourceAlpha" result="shadowOffsetOuter1"></feOffset>
            <feColorMatrix values="0 0 0 0 0   0 0 0 0 0   0 0 0 0 0  0 0 0 0.5 0" type="matrix" in="shadowOffsetOuter1"></feColorMatrix>
        </filter>
    </defs>
    <g id="home_page" stroke="none" stroke-width="1" fill="none" fill-rule="evenodd">
        <g id="Tablet" transform="translate(-505.000000, 0.000000)">
            <g id="Group-7" transform="translate(311.000000, -213.000000)">
                <g id="Group-5" transform="translate(535.362246, 533.469659) rotate(-3.000000) translate(-535.362246, -533.469659) translate(25.862246, 25.969659)">
                    <path d="M151.85982,128.130014 C94.5751406,138.953903 131.550909,202.260134 161.897127,259.525539 C192.243345,316.790944 251.153603,307.150292 309.406807,382.99832 C367.66001,458.846348 319.058593,550.105615 309.365992,581.772682 C279.477873,666.183467 273.530874,727.563268 326.600524,776.122303 C379.670175,824.681339 506.520189,872.544143 626.478373,854.336144 C746.436557,836.128144 785.543331,773.908952 857.927078,804.463538 C857.740229,759.4738 857.78653,533.980973 858.065979,127.985058 C425.451659,120.865769 190.049606,120.914088 151.85982,128.130014 Z" id="Path-5" fill="url(#linearGradient-1)" transform="translate(489.959116, 490.486230) rotate(25.000000) translate(-489.959116, -490.486230) "></path>
                    <path d="M173.647507,145.568441 C116.365581,156.39496 153.33707,219.703345 183.679588,276.970808 C214.022105,334.238271 272.929479,324.594997 331.176792,400.445108 C389.424105,476.29522 340.822101,567.561214 331.128905,599.230361 C301.239418,683.646834 295.29056,745.030208 348.355575,793.590017 C401.42059,842.149826 528.261952,890.010742 648.214213,871.797479 C768.166473,853.584216 807.27332,791.360225 879.652013,821.913911 C879.466777,776.921715 879.521101,551.416533 879.814985,145.398366 C447.224618,138.29407 211.835459,138.350762 173.647507,145.568441 Z" id="Path-5" fill="url(#linearGradient-2)" opacity="0.300000012" transform="translate(511.727713, 507.933331) rotate(32.000000) translate(-511.727713, -507.933331) "></path>
                </g>
                <g id="icons" transform="translate(188.000000, 263.000000)">
                    <g id="html5" transform="translate(139.000000, 0.000000)">
                        <g id="Rectangle" transform="translate(53.500000, 53.500000) rotate(-45.000000) translate(-53.500000, -53.500000) ">
                            <use fill="#FF3800" xlink:href="#path-4"></use>
                            <use fill="url(#linearGradient-3)" xlink:href="#path-4"></use>
                        </g>
                        <g opacity="0.968610491">
                            <use fill="black" fill-opacity="1" filter="url(#filter-6)" xlink:href="#path-5"></use>
                            <use fill="#FFFFFF" fill-rule="evenodd" xlink:href="#path-5"></use>
                        </g>
                    </g>
                    <g id="html5" transform="translate(147.000000, 129.000000)">
                        <g id="Rectangle" transform="translate(56.067920, 56.067920) rotate(-45.000000) translate(-56.067920, -56.067920) ">
                            <use fill="#0277BD" xlink:href="#path-8"></use>
                            <use fill="url(#linearGradient-7)" xlink:href="#path-8"></use>
                        </g>
                        <g id="css3">
                            <use fill="black" fill-opacity="1" filter="url(#filter-10)" xlink:href="#path-9"></use>
                            <use fill="#FFFFFF" fill-rule="evenodd" xlink:href="#path-9"></use>
                        </g>
                    </g>
                    <g id="html5" transform="translate(55.000000, 232.000000)">
                        <path d="M31.6176471,16.6176471 L81.3823529,16.6176471 C89.6666242,16.6176471 96.3823529,23.3333758 96.3823529,31.6176471 L96.3823529,81.3823529 C96.3823529,89.6666242 89.6666242,96.3823529 81.3823529,96.3823529 L31.6176471,96.3823529 C23.3333758,96.3823529 16.6176471,89.6666242 16.6176471,81.3823529 L16.6176471,31.6176471 C16.6176471,23.3333758 23.3333758,16.6176471 31.6176471,16.6176471 Z" id="Rectangle" fill="#F8DC3D" transform="translate(56.500000, 56.500000) rotate(-45.000000) translate(-56.500000, -56.500000) "></path>
                        <g id="JS">
                            <use fill="black" fill-opacity="1" filter="url(#filter-12)" xlink:href="#path-11"></use>
                            <use fill="#FFFFFF" fill-rule="evenodd" xlink:href="#path-11"></use>
                        </g>
                    </g>
                    <g id="html5" transform="translate(0.000000, 366.000000)">
                        <path d="M33.7684729,18.7684729 L93.4155317,18.7684729 C101.699803,18.7684729 108.415532,25.4842017 108.415532,33.7684729 L108.415532,93.4155317 C108.415532,101.699803 101.699803,108.415532 93.4155317,108.415532 L33.7684729,108.415532 C25.4842017,108.415532 18.7684729,101.699803 18.7684729,93.4155317 L18.7684729,33.7684729 C18.7684729,25.4842017 25.4842017,18.7684729 33.7684729,18.7684729 Z" id="Rectangle" fill="#83CD29" transform="translate(63.592002, 63.592002) rotate(-45.000000) translate(-63.592002, -63.592002) "></path>
                        <g id="node">
                            <use fill="black" fill-opacity="1" filter="url(#filter-14)" xlink:href="#path-13"></use>
                            <use fill="#FFFFFF" fill-rule="evenodd" xlink:href="#path-13"></use>
                        </g>
                    </g>
                    <g id="html5" transform="translate(99.000000, 495.000000)">
                        <path d="M34.3596059,19.3596059 L96.8301941,19.3596059 C105.114465,19.3596059 111.830194,26.0753347 111.830194,34.3596059 L111.830194,96.8301941 C111.830194,105.114465 105.114465,111.830194 96.8301941,111.830194 L34.3596059,111.830194 C26.0753347,111.830194 19.3596059,105.114465 19.3596059,96.8301941 L19.3596059,34.3596059 C19.3596059,26.0753347 26.0753347,19.3596059 34.3596059,19.3596059 Z" id="Rectangle" fill="#5382A1" transform="translate(65.594900, 65.594900) rotate(-45.000000) translate(-65.594900, -65.594900) "></path>
                        <g id="Group-2" transform="translate(48.000000, 34.000000)">
                            <g id="database">
                                <use fill="black" fill-opacity="1" filter="url(#filter-16)" xlink:href="#path-15"></use>
                                <use fill="#FFFFFF" fill-rule="evenodd" xlink:href="#path-15"></use>
                            </g>
                            <g id="DBs">
                                <use fill="black" fill-opacity="1" filter="url(#filter-18)" xlink:href="#path-17"></use>
                                <use fill="#FFFFFF" fill-rule="evenodd" xlink:href="#path-17"></use>
                            </g>
                        </g>
                    </g>
                </g>
            </g>
        </g>
    </g>
</svg>