<?xml version="1.0" encoding="UTF-8"?>
<svg width="51px" height="51px" viewBox="0 0 51 51" version="1.1" xmlns="http://www.w3.org/2000/svg" xmlns:xlink="http://www.w3.org/1999/xlink">
    <!-- Generator: Sketch 52.4 (67378) - http://www.bohemiancoding.com/sketch -->
    <title>logo</title>
    <desc>Created with Sketch.</desc>
    <defs>
        <linearGradient x1="57.4979691%" y1="4.50281992%" x2="38.3265638%" y2="105.855659%" id="linearGradient-1">
            <stop stop-color="#3A02AA" offset="0%"></stop>
            <stop stop-color="#4002AD" offset="8%"></stop>
            <stop stop-color="#6602BC" offset="18%"></stop>
            <stop stop-color="#9401CF" offset="32%"></stop>
            <stop stop-color="#BB01DF" offset="46%"></stop>
            <stop stop-color="#D900EB" offset="60%"></stop>
            <stop stop-color="#EE00F4" offset="74%"></stop>
            <stop stop-color="#FB00F9" offset="87%"></stop>
            <stop stop-color="#FF00FB" offset="100%"></stop>
        </linearGradient>
        <linearGradient x1="71.8013952%" y1="-15.9443926%" x2="39.827657%" y2="86.7191166%" id="linearGradient-2">
            <stop stop-color="#FF00FB" offset="0%"></stop>
            <stop stop-color="#FB00F9" offset="13%"></stop>
            <stop stop-color="#EE00F4" offset="26%"></stop>
            <stop stop-color="#D900EB" offset="40%"></stop>
            <stop stop-color="#BB01DF" offset="54%"></stop>
            <stop stop-color="#9401CF" offset="68%"></stop>
            <stop stop-color="#6602BC" offset="82%"></stop>
            <stop stop-color="#4002AD" offset="92%"></stop>
            <stop stop-color="#3A02AA" offset="100%"></stop>
        </linearGradient>
    </defs>
    <g id="home_page" stroke="none" stroke-width="1" fill="none" fill-rule="evenodd">
        <g id="Tablet" transform="translate(-41.000000, -48.000000)">
            <g id="logo" transform="translate(41.000000, 48.000000)">
                <path d="M50.9917141,24.974363 C50.889813,34.9926689 43.3188779,43.325637 33.4273488,44.3066243 C23.5358196,45.2876116 14.4989537,38.6017136 12.4620634,28.7955212 C12.162849,27.6535117 12.0124374,26.477089 12.0146223,25.2959249 C12.0146223,25.0871184 12.0146223,24.878312 12.0146223,24.6736817 C12.3488537,17.4100765 18.2883879,11.6942687 25.5020715,11.6942687 C32.7157551,11.6942687 38.6552893,17.4100765 38.9895207,24.6736817 L38.9895207,24.6486249 C38.9888501,14.6414127 31.5268371,6.23342303 21.6604201,5.12267397 C11.794003,4.01192491 2.675625,10.5533146 0.484727864,20.3138028 C0.18415711,21.8494253 0.0219209273,23.4092933 0,24.974363 C0,25.0829423 0,25.1873455 0,25.2959249 C1.72470207e-15,39.4918936 11.4167389,51 25.5,51 C39.5832611,51 51,39.4918936 51,25.2959249 C51,25.1873455 50.995857,25.0662378 50.9917141,24.974363 Z" id="Path" fill="url(#linearGradient-1)"></path>
                <path d="M50.5568322,20.8142496 C48.2208858,8.71871665 37.8416508,7.54420887e-16 25.7784161,0 C13.7151814,-7.55148391e-16 3.3359464,8.71871665 1,20.8142496 C3.16997303,11.0125293 12.2012662,4.44350618 21.9734543,5.55894749 C31.7456423,6.67438879 39.1363895,15.1178972 39.1370538,25.1673837 L39.1370538,25.1883526 C39.1370538,25.3938474 39.1370538,25.6077297 39.1370538,25.8132244 C39.1415712,32.6800937 34.1600657,38.4842665 27.4978672,39.3745566 C20.8356686,40.2648467 14.5614685,35.9648085 12.8383258,29.3276044 C14.8557629,39.175222 23.8063224,45.8893639 33.6033827,44.9042325 C43.4004431,43.9191012 50.8990721,35.5509313 51,25.4903041 C50.9922531,23.9210612 50.8439111,22.3558403 50.5568322,20.8142496 Z" id="Path" fill="url(#linearGradient-2)"></path>
            </g>
        </g>
    </g>
</svg>