<?xml version="1.0" encoding="UTF-8"?>
<svg width="321px" height="91px" viewBox="0 0 321 91" version="1.1" xmlns="http://www.w3.org/2000/svg" xmlns:xlink="http://www.w3.org/1999/xlink">
    <!-- Generator: Sketch 52.3 (67297) - http://www.bohemiancoding.com/sketch -->
    <title>logo</title>
    <desc>Created with Sketch.</desc>
    <defs>
        <linearGradient x1="57.4979691%" y1="4.50281992%" x2="38.5313162%" y2="104.773202%" id="linearGradient-1">
            <stop stop-color="#3A02AA" offset="0%"></stop>
            <stop stop-color="#4002AD" offset="8%"></stop>
            <stop stop-color="#6602BC" offset="18%"></stop>
            <stop stop-color="#9401CF" offset="32%"></stop>
            <stop stop-color="#BB01DF" offset="46%"></stop>
            <stop stop-color="#D900EB" offset="60%"></stop>
            <stop stop-color="#EE00F4" offset="74%"></stop>
            <stop stop-color="#FB00F9" offset="87%"></stop>
            <stop stop-color="#FF00FB" offset="100%"></stop>
        </linearGradient>
        <linearGradient x1="71.8013952%" y1="-15.9443926%" x2="39.827657%" y2="86.7191166%" id="linearGradient-2">
            <stop stop-color="#FF00FB" offset="0%"></stop>
            <stop stop-color="#FB00F9" offset="13%"></stop>
            <stop stop-color="#EE00F4" offset="26%"></stop>
            <stop stop-color="#D900EB" offset="40%"></stop>
            <stop stop-color="#BB01DF" offset="54%"></stop>
            <stop stop-color="#9401CF" offset="68%"></stop>
            <stop stop-color="#6602BC" offset="82%"></stop>
            <stop stop-color="#4002AD" offset="92%"></stop>
            <stop stop-color="#3A02AA" offset="100%"></stop>
        </linearGradient>
        <path d="M13.582,41.21 C7.114,41.21 2.326,36.506 2.326,29.954 C2.326,23.402 7.114,18.74 13.582,18.74 C20.05,18.74 24.796,23.402 24.796,29.954 C24.796,36.506 20.05,41.21 13.582,41.21 Z M13.582,38.564 C18.286,38.564 21.772,35.12 21.772,29.954 C21.772,24.788 18.286,21.344 13.582,21.344 C8.878,21.344 5.35,24.788 5.35,29.954 C5.35,35.12 8.878,38.564 13.582,38.564 Z M45.88,18.908 L48.82,18.908 L38.992,41 L35.926,41 L26.14,18.908 L29.248,18.908 L37.522,37.724 L45.88,18.908 Z M71.668,29.954 C71.668,30.206 71.626,30.542 71.626,30.878 L53.146,30.878 C53.482,35.498 57.01,38.564 61.84,38.564 C64.528,38.564 66.922,37.598 68.602,35.666 L70.282,37.598 C68.308,39.95 65.242,41.21 61.756,41.21 C54.868,41.21 50.164,36.506 50.164,29.954 C50.164,23.402 54.742,18.74 60.958,18.74 C67.174,18.74 71.668,23.318 71.668,29.954 Z M60.958,21.302 C56.674,21.302 53.524,24.326 53.146,28.652 L68.812,28.652 C68.434,24.326 65.284,21.302 60.958,21.302 Z M80.614,23.234 C82,20.294 84.814,18.74 88.888,18.74 L88.888,21.638 C88.636,21.638 88.384,21.596 88.174,21.596 C83.554,21.596 80.74,24.536 80.74,29.744 L80.74,41 L77.758,41 L77.758,18.908 L80.614,18.908 L80.614,23.234 Z M121.816,18.74 C127.192,18.74 130.72,21.848 130.72,28.19 L130.72,41 L127.738,41 L127.738,28.484 C127.738,23.822 125.386,21.428 121.396,21.428 C116.86,21.428 114.004,24.368 114.004,29.408 L114.004,41 L111.022,41 L111.022,28.484 C111.022,23.822 108.67,21.428 104.638,21.428 C100.144,21.428 97.246,24.368 97.246,29.408 L97.246,41 L94.264,41 L94.264,18.908 L97.12,18.908 L97.12,22.94 C98.674,20.294 101.53,18.74 105.226,18.74 C108.88,18.74 111.736,20.294 113.08,23.402 C114.676,20.546 117.826,18.74 121.816,18.74 Z M158.188,29.954 C158.188,30.206 158.146,30.542 158.146,30.878 L139.666,30.878 C140.002,35.498 143.53,38.564 148.36,38.564 C151.048,38.564 153.442,37.598 155.122,35.666 L156.802,37.598 C154.828,39.95 151.762,41.21 148.276,41.21 C141.388,41.21 136.684,36.506 136.684,29.954 C136.684,23.402 141.262,18.74 147.478,18.74 C153.694,18.74 158.188,23.318 158.188,29.954 Z M147.478,21.302 C143.194,21.302 140.044,24.326 139.666,28.652 L155.332,28.652 C154.954,24.326 151.804,21.302 147.478,21.302 Z M175.534,18.74 C180.91,18.74 184.606,21.848 184.606,28.19 L184.606,41 L181.624,41 L181.624,28.484 C181.624,23.822 179.188,21.428 174.988,21.428 C170.242,21.428 167.26,24.368 167.26,29.408 L167.26,41 L164.278,41 L164.278,18.908 L167.134,18.908 L167.134,22.982 C168.73,20.294 171.712,18.74 175.534,18.74 Z M203.296,37.514 L204.346,39.656 C203.17,40.706 201.406,41.21 199.684,41.21 C195.526,41.21 193.216,38.858 193.216,34.784 L193.216,21.428 L189.268,21.428 L189.268,18.908 L193.216,18.908 L193.216,14.078 L196.198,14.078 L196.198,18.908 L202.918,18.908 L202.918,21.428 L196.198,21.428 L196.198,34.616 C196.198,37.22 197.542,38.648 200.02,38.648 C201.238,38.648 202.456,38.27 203.296,37.514 Z" id="path-3"></path>
    </defs>
    <g id="Page-1" stroke="none" stroke-width="1" fill="none" fill-rule="evenodd">
        <g id="logo">
            <g id="signet">
                <path d="M90.9852153,44.6064731 C90.8033917,62.4651924 77.2944684,77.3196138 59.6448772,79.0683302 C41.995286,80.8170467 25.8706821,68.8987068 22.2362307,51.4181029 C21.7023384,49.3823469 21.4339569,47.2852457 21.4378554,45.1796922 C21.4378554,44.807472 21.4378554,44.4352518 21.4378554,44.070476 C22.0342291,31.1223102 32.6322215,20.9332616 45.5036962,20.9332616 C58.3751709,20.9332616 68.9731632,31.1223102 69.569537,44.070476 L69.569537,44.0258096 C69.5683404,26.1868662 56.2537681,11.1987106 38.6489848,9.21867969 C21.0442015,7.23864876 4.77415442,18.8993869 0.86490658,36.298518 C0.328594059,39.0359321 0.0391138115,41.8165664 0,44.6064731 C0,44.8000276 0,44.9861377 0,45.1796922 C3.07740957e-15,70.4855494 20.3710439,91 45.5,91 C70.6289561,91 91,70.4855494 91,45.1796922 C91,44.9861377 90.9926076,44.77025 90.9852153,44.6064731 Z" id="Path" fill="url(#linearGradient-1)"></path>
                <path d="M90.2022979,37.0031105 C85.9975944,15.4999407 67.3149714,1.34119269e-15 45.601149,0 C23.8873266,-1.34248603e-15 5.20470352,15.4999407 1,37.0031105 C4.90595145,19.5778299 21.1622792,7.89956655 38.7522177,9.88257331 C56.3421562,11.8655801 69.6455012,26.8762616 69.6466968,44.7420155 L69.6466968,44.7792935 C69.6466968,45.1446175 69.6466968,45.5248528 69.6466968,45.8901768 C69.6548282,58.0979444 60.6881183,68.4164738 48.6961609,69.9992118 C36.7042034,71.5819497 25.4106433,63.9374373 22.3089865,52.1379633 C25.9403732,69.6448392 42.0513804,81.5810914 59.6860889,79.8297467 C77.3207975,78.0784021 90.8183298,63.2016557 91,45.3160962 C90.9860556,42.526331 90.7190399,39.7437162 90.2022979,37.0031105 Z" id="Path" fill="url(#linearGradient-2)"></path>
            </g>
            <g id="overment" transform="translate(116.000000, 14.000000)">
                <g>
                    <use fill="#000000" xlink:href="#path-3"></use>
                    <use fill="#111111" xlink:href="#path-3"></use>
                </g>
            </g>
        </g>
    </g>
</svg>