<?xml version="1.0" standalone="no"?>
<!DOCTYPE svg PUBLIC "-//W3C//DTD SVG 20010904//EN"
 "http://www.w3.org/TR/2001/REC-SVG-20010904/DTD/svg10.dtd">
<svg version="1.0" xmlns="http://www.w3.org/2000/svg"
 width="520.000000pt" height="520.000000pt" viewBox="0 0 520.000000 520.000000"
 preserveAspectRatio="xMidYMid meet">
<metadata>
Created by potrace 1.11, written by Peter Selinger 2001-2013
</metadata>
<g transform="translate(0.000000,520.000000) scale(0.100000,-0.100000)"
fill="#000000" stroke="none">
<path d="M2400 4690 c-183 -21 -304 -47 -460 -99 -525 -175 -962 -556 -1214
-1060 -111 -219 -192 -481 -213 -681 -10 -96 -10 -374 -1 -465 41 -381 181
-733 417 -1050 152 -204 422 -444 621 -553 190 -104 349 -169 530 -217 9 -2
114 -25 140 -30 30 -6 80 -13 175 -25 72 -8 410 -6 455 4 14 3 41 8 60 10 20
2 47 7 60 10 14 3 36 8 50 10 89 15 270 70 375 113 471 195 864 564 1087 1021
154 317 220 617 213 967 -2 99 -6 191 -9 205 -3 13 -8 42 -12 65 -5 37 -16 93
-28 154 -3 13 -17 65 -32 115 -189 659 -706 1195 -1362 1411 -81 27 -144 45
-182 52 -14 2 -41 8 -60 13 -19 4 -60 11 -90 15 -30 4 -64 9 -75 11 -38 9
-380 12 -445 4z m436 -988 c91 -20 226 -71 299 -112 198 -111 369 -294 468
-500 34 -72 76 -192 82 -237 2 -11 6 -29 9 -40 16 -53 25 -318 12 -361 -3 -9
-7 -35 -10 -57 -35 -276 -232 -585 -477 -747 -95 -63 -162 -98 -234 -123 -144
-49 -259 -69 -390 -69 -63 1 -195 13 -206 19 -3 2 -19 6 -35 9 -163 29 -387
152 -526 289 -184 181 -269 354 -322 656 -64 356 69 748 337 998 162 151 400
265 602 289 28 4 52 8 53 9 13 11 261 -6 338 -23z"/>
</g>
</svg>
